<?xml version="1.0" encoding="UTF-8"?>
<!DOCTYPE svg PUBLIC "-//W3C//DTD SVG 1.0//EN" "http://www.w3.org/TR/2001/REC-SVG-20010904/DTD/svg10.dtd">
<!-- Creator: CorelDRAW 2021 (64-Bit) -->
<svg xmlns="http://www.w3.org/2000/svg" xml:space="preserve" width="500px" height="359px" version="1.0" style="shape-rendering:geometricPrecision; text-rendering:geometricPrecision; image-rendering:optimizeQuality; fill-rule:evenodd; clip-rule:evenodd"
viewBox="0 0 12439.26 8942.76"
 xmlns:xlink="http://www.w3.org/1999/xlink"
 xmlns:xodm="http://www.corel.com/coreldraw/odm/2003">
 <defs>
  <style type="text/css">
   <![CDATA[
    .fil0 {fill:black;fill-rule:nonzero}
   ]]>
  </style>
 </defs>
 <g id="Layer_x0020_1">
  <metadata id="CorelCorpID_0Corel-Layer"/>
  <g id="Objects">
   <g>
    <path class="fil0" d="M4021.16 5606.58c119.3,-1228.47 726.78,-2564.83 1710.5,-3762.96 382.53,-465.86 827.4,-856.78 1322.35,-1161.94 476.67,-293.9 979.22,-496.15 1493.74,-601.14 263.05,-53.68 522.24,-80.51 775.92,-80.51 239.59,0 474.28,23.98 702.25,71.9 227.61,47.87 443.99,118.86 647.89,212.33 135.99,62.33 126.64,259.02 -14.64,308.15 -511.34,177.69 -977.14,448.82 -1371.73,801.37 -578.34,516.69 -971.12,1179.47 -1135.88,1916.69 -79.07,353.76 -109.42,724.09 -138.75,1082.25 -32.26,393.57 -65.61,800.51 -164.52,1171.19 -196.99,738.54 -668.87,1397.04 -1364.66,1904.27 -380.58,277.53 -834.39,514.01 -1352.67,705.27 -172.27,63.59 -365.56,11.26 -482.6,-130.23 -501.56,-606.34 -722.73,-1453.3 -627.2,-2436.64zm8119.12 -748.68c-202.99,544.87 -499.85,1057.36 -882.35,1523.21 -474.43,577.81 -1010.28,1078.1 -1592.67,1486.96 -561.06,393.89 -1140.11,685.88 -1721.12,867.91 -576.57,180.63 -1124.44,243.36 -1628.41,186.42 -318.61,-35.97 -610.98,-119.27 -874.2,-248.65 -127.8,-62.8 -120.98,-246.68 10.93,-300.31 455.6,-185.21 860.75,-406.38 1209.48,-660.7 752.38,-548.51 1263.75,-1264.57 1478.78,-2070.79 105.93,-396.92 140.4,-817.64 173.75,-1224.52 28.5,-347.88 57.97,-707.6 132.46,-1040.93 150.92,-675.16 511.26,-1282.74 1042.17,-1757.02 458.54,-409.68 1022.01,-700.79 1643.36,-851.2 142.46,-34.47 292.17,7.72 395.63,111.57 266.1,267.16 478.05,583.68 631.85,944.32 188.11,441.08 282.09,929.47 279.23,1451.57 -2.85,525.09 -103.4,1057.39 -298.89,1582.16z"/>
    <path class="fil0" d="M5341.41 8877.47c-140.36,-69.03 -224.2,-208.92 -218.67,-365.1 1.29,-36.32 7.34,-71.43 17.63,-104.67 -51.84,12.96 -105.02,19.46 -158.82,19.46 -197.11,0 -382.35,-87.16 -508.08,-239.25 -271.57,-328.31 -467.56,-720.17 -582.4,-1164.87 -113.57,-439.68 -145.89,-923.63 -95.88,-1438.38 43.52,-448.32 149.39,-909.82 312.36,-1373.56 -24.6,-282 -55.39,-566.82 -115.25,-834.6 -150.89,-675.16 -511.25,-1282.76 -1042.14,-1757.02 -458.51,-409.74 -1022,-700.84 -1643.36,-851.26 -142.48,-34.41 -292.23,7.81 -395.66,111.63 -266.04,267.16 -478.05,583.65 -631.81,944.29 -188.18,441.14 -282.09,929.47 -279.27,1451.57 2.88,525.12 103.43,1057.42 298.86,1582.16 203.02,544.87 499.92,1057.36 882.41,1523.21 474.44,577.78 1010.28,1078.08 1592.68,1486.99 561,393.83 1140.04,685.82 1721.08,867.88 330.43,103.52 651.48,168.29 960.19,194.09 -38.5,-16.63 -76.49,-34.21 -113.87,-52.57zm43.82 -8195.79c-476.7,-293.87 -979.26,-496.12 -1493.72,-601.14 -263.07,-53.65 -522.24,-80.54 -775.94,-80.54 -239.63,0 -474.26,24.01 -702.25,71.9 -227.61,47.9 -444,118.86 -647.92,212.3 -135.96,62.36 -126.59,259.08 14.66,308.21 511.37,177.72 977.14,448.76 1371.74,801.37 578.31,516.63 971.11,1179.47 1135.9,1916.66 22.92,102.41 41.7,206.19 57.59,310.71 298.05,-656.18 706.48,-1307.15 1210.92,-1921.6 155.06,-188.88 319.99,-365.92 494.18,-530.42 -209.74,-180.77 -431.97,-343.61 -665.16,-487.45z"/>
   </g>
  </g>
 </g>
</svg>
