<?xml version="1.0" encoding="UTF-8"?>
<!DOCTYPE svg PUBLIC "-//W3C//DTD SVG 1.0//EN" "http://www.w3.org/TR/2001/REC-SVG-20010904/DTD/svg10.dtd">
<!-- Creator: CorelDRAW 2021 (64-Bit) -->
<svg xmlns="http://www.w3.org/2000/svg" xml:space="preserve" width="275px" height="217px" version="1.0" style="shape-rendering:geometricPrecision; text-rendering:geometricPrecision; image-rendering:optimizeQuality; fill-rule:evenodd; clip-rule:evenodd"
viewBox="0 0 35.07 27.66"
 xmlns:xlink="http://www.w3.org/1999/xlink"
 xmlns:xodm="http://www.corel.com/coreldraw/odm/2003">
 <defs>
  <style type="text/css">
   <![CDATA[
    .str0 {stroke:black;stroke-width:0.3;stroke-miterlimit:22.9256}
    .fil1 {fill:none;fill-rule:nonzero}
    .fil2 {fill:#F4FAFD;fill-rule:nonzero}
    .fil0 {fill:black;fill-rule:nonzero}
    .fil3 {fill:black;fill-rule:nonzero}
   ]]>
  </style>
 </defs>
 <g id="Layer_x0020_1">
  <metadata id="CorelCorpID_0Corel-Layer"/>
  <path class="fil0" d="M13.82 16.57c0.6,-1.66 0.37,-1.79 0.3,-4.3 -0.06,-2.51 -0.4,-2.08 -2.42,-6.38 -0.59,-1.24 -0.77,-2.34 -0.75,-3.29 -0.05,0.07 -0.1,0.15 -0.15,0.22 -0.06,0.08 -0.12,0.15 -0.19,0.21 -0.32,0.26 -0.96,0.34 -1.05,-0.11 -0.07,-0.38 -1.76,-1.94 -3.91,-2.68 -0.19,-0.04 -0.39,-0.07 -0.6,-0.09 -0.59,-0.04 -3.22,0.35 -4.05,0.67 -0.71,0.29 -1.14,1.23 -0.96,2.17 0.42,2.21 3.15,5.75 6.18,4.73 1.82,-0.61 2.72,-0.09 2.72,-0.09 0,0 0.4,4.85 1.64,6.26 1.24,1.41 1.28,3.32 1.15,5.53 -0.01,0.22 0,0.49 0.03,0.8 0.1,-3.02 1.47,-1.99 2.06,-3.65zm-2.55 -6.7c0,0.18 -0.14,0.32 -0.32,0.32 -0.18,0 -0.33,-0.14 -0.33,-0.32 0,-0.18 0.15,-0.33 0.33,-0.33 0.18,0 0.32,0.15 0.32,0.33z"/>
  <path class="fil1 str0" d="M21.48 24.89c1.05,-1.09 1.68,-3.25 1.83,-4.67 -0.1,-3.02 -1.46,-1.99 -2.06,-3.65 -0.6,-1.66 -0.37,-1.79 -0.3,-4.3 0.07,-2.51 0.4,-2.08 2.42,-6.38 0.59,-1.24 0.78,-2.34 0.75,-3.29 -0.09,-0.13 -0.18,-0.26 -0.27,-0.39 -0.23,-0.31 -0.48,-0.64 -0.73,-0.97 -0.68,-0.76 -1.71,-1.09 -4.28,-1.09l-1.3 0 -1.31 0c-2.56,0 -3.6,0.33 -4.28,1.09 -0.25,0.33 -0.5,0.66 -0.73,0.97 -0.09,0.13 -0.18,0.26 -0.27,0.39 -0.02,0.95 0.16,2.05 0.75,3.29 2.02,4.3 2.36,3.87 2.42,6.38 0.07,2.51 0.3,2.64 -0.3,4.3 -0.59,1.66 -1.96,0.63 -2.06,3.65 0.15,1.42 0.78,3.58 1.83,4.67 2.98,1.09 5.58,0.98 7.89,0z"/>
  <path class="fil1 str0" d="M13.59 24.9l0 0c0.51,3.5 3.95,2.47 3.95,2.47 0,0 3.43,1.03 3.94,-2.47l0 0c-0.37,0.38 -0.86,0.63 -1.53,0.67 -1.71,0.09 -2.26,0.11 -2.41,0.1 -0.16,0.01 -0.7,-0.01 -2.42,-0.1 -0.67,-0.04 -1.16,-0.29 -1.53,-0.67z"/>
  <path class="fil2" d="M24.2 9.87c0,0.18 -0.15,0.32 -0.33,0.32 -0.18,0 -0.33,-0.14 -0.33,-0.32 0,-0.18 0.15,-0.33 0.33,-0.33 0.18,0 0.33,0.15 0.33,0.33z"/>
  <path class="fil3" d="M17.54 19.65c0,0 -0.28,-0.06 -1.2,0 -0.05,0.01 -0.09,0.01 -0.14,0.02l-0.03 0c-0.04,0.01 -0.09,0.02 -0.14,0.03l-0.03 0.01c-0.05,0.01 -0.1,0.03 -0.16,0.04l-0.02 0.01c-0.05,0.01 -0.1,0.03 -0.15,0.05l-0.02 0.01c-0.05,0.02 -0.11,0.04 -0.17,0.06l-0.03 0.01c-0.05,0.03 -0.11,0.05 -0.16,0.07l-0.03 0.02c-0.06,0.03 -0.11,0.05 -0.17,0.08l0 0.01c-0.06,0.02 -0.11,0.05 -0.16,0.08l-0.03 0.02c-0.05,0.03 -0.11,0.06 -0.16,0.1l-0.03 0.02c-0.05,0.03 -0.09,0.06 -0.14,0.1l-0.03 0.02c-0.04,0.03 -0.09,0.07 -0.13,0.11l-0.02 0.01 -0.12 0.11 -0.01 0.01 -0.01 0.01 -0.05 0.06 -0.02 0.01 -0.05 0.07 0 0 -0.05 0.06 -0.01 0.02 -0.03 0.06 -0.01 0.01 -0.03 0.06 -0.01 0.02 -0.02 0.05 0 0.02 -0.02 0.06 0 0.01 0 0.05 0 0.02 0 0.06 0 0.01 0.02 0.05 0 0.02 0.03 0.06c0.37,0.7 -0.4,1.82 0.55,1.02 0.95,-0.8 1.17,0.06 1.29,0.8 0.13,0.73 -0.35,1.47 -1,0.92 -0.52,-0.43 -0.79,-0.58 -1.13,-0.52 0.15,0.22 0.28,0.35 0.28,0.35 0,0 -0.13,-0.13 -0.28,-0.35 -0.08,0.01 -0.17,0.04 -0.26,0.08 -0.46,0.18 0.1,1.09 0.14,1.15 0.36,0.39 0.86,0.64 1.53,0.68 1.72,0.09 2.26,0.11 2.42,0.1 0.15,0.01 0.7,-0.01 2.41,-0.1 0.67,-0.04 1.17,-0.29 1.53,-0.68 0.04,-0.06 0.6,-0.97 0.14,-1.15 -0.09,-0.04 -0.18,-0.07 -0.26,-0.08 -0.15,0.22 -0.28,0.35 -0.28,0.35 0,0 0.13,-0.13 0.28,-0.35 -0.33,-0.06 -0.61,0.09 -1.13,0.52 -0.65,0.55 -1.13,-0.19 -1,-0.92 0.12,-0.74 0.34,-1.6 1.29,-0.8 0.95,0.8 0.18,-0.32 0.55,-1.02l0.03 -0.06 0 -0.02 0.02 -0.05 0 -0.01 0 -0.06 0 -0.02 0 -0.05 0 -0.01 -0.02 -0.06 0 -0.02 -0.02 -0.05 -0.01 -0.02 -0.03 -0.06 -0.01 -0.01 -0.03 -0.06 -0.01 -0.02 -0.05 -0.06 0 0 -0.05 -0.07 -0.02 -0.01 -0.05 -0.06 -0.01 -0.01 -0.01 -0.01 -0.12 -0.11 -0.01 -0.01c-0.05,-0.04 -0.09,-0.08 -0.14,-0.11l-0.03 -0.02c-0.04,-0.04 -0.09,-0.07 -0.14,-0.1l-0.03 -0.02c-0.05,-0.04 -0.11,-0.07 -0.16,-0.1l-0.02 -0.02c-0.06,-0.03 -0.11,-0.06 -0.17,-0.08l0 -0.01c-0.06,-0.03 -0.11,-0.05 -0.17,-0.08l-0.03 -0.02c-0.05,-0.02 -0.11,-0.04 -0.16,-0.07l-0.03 -0.01c-0.06,-0.02 -0.11,-0.04 -0.17,-0.06l-0.02 -0.01c-0.05,-0.02 -0.1,-0.04 -0.15,-0.05l-0.02 -0.01c-0.06,-0.01 -0.11,-0.03 -0.16,-0.04l-0.03 -0.01c-0.05,-0.01 -0.1,-0.02 -0.14,-0.03l-0.03 0c-0.05,-0.01 -0.09,-0.01 -0.14,-0.02 -0.92,-0.06 -1.19,0 -1.19,0z"/>
  <path class="fil3" d="M21.25 16.57c-0.6,-1.66 -0.37,-1.79 -0.3,-4.3 0.07,-2.51 0.4,-2.08 2.42,-6.38 0.59,-1.24 0.78,-2.34 0.75,-3.29 0.05,0.07 0.1,0.15 0.15,0.22 0.06,0.08 0.12,0.15 0.19,0.21 0.32,0.26 0.96,0.34 1.05,-0.11 0.07,-0.38 1.76,-1.94 3.91,-2.68 0.2,-0.04 0.4,-0.07 0.6,-0.09 0.59,-0.04 3.23,0.35 4.05,0.67 0.71,0.29 1.14,1.23 0.96,2.17 -0.42,2.21 -3.15,5.75 -6.17,4.73 -1.83,-0.61 -2.73,-0.09 -2.73,-0.09 0,0 -0.4,4.85 -1.64,6.26 -1.24,1.41 -1.28,3.32 -1.15,5.53 0.01,0.22 0,0.49 -0.03,0.8 -0.1,-3.02 -1.46,-1.99 -2.06,-3.65zm2.55 -6.7c0,0.18 0.14,0.32 0.32,0.32 0.18,0 0.33,-0.14 0.33,-0.32 0,-0.18 -0.15,-0.33 -0.33,-0.33 -0.18,0 -0.32,0.15 -0.32,0.33z"/>
 </g>
</svg>
