<?xml version="1.0" encoding="UTF-8"?>
<!DOCTYPE svg PUBLIC "-//W3C//DTD SVG 1.0//EN" "http://www.w3.org/TR/2001/REC-SVG-20010904/DTD/svg10.dtd">
<!-- Creator: CorelDRAW 2021 (64-Bit) -->
<svg xmlns="http://www.w3.org/2000/svg" xml:space="preserve" width="172px" height="551px" version="1.0" style="shape-rendering:geometricPrecision; text-rendering:geometricPrecision; image-rendering:optimizeQuality; fill-rule:evenodd; clip-rule:evenodd"
viewBox="0 0 5.79 18.53"
 xmlns:xlink="http://www.w3.org/1999/xlink"
 xmlns:xodm="http://www.corel.com/coreldraw/odm/2003">
 <defs>
  <style type="text/css">
   <![CDATA[
    .fil0 {fill:black;fill-rule:nonzero}
   ]]>
  </style>
 </defs>
 <g id="Layer_x0020_1">
  <metadata id="CorelCorpID_0Corel-Layer"/>
  <path class="fil0" d="M2.91 18.53c-0.31,0 -0.18,-13.53 0,-13.53 0.18,0 0.33,13.53 0,13.53z"/>
  <path class="fil0" d="M2.93 18.27c0,0 -0.73,-2.4 -2.45,-2.55 0,0 1.26,-0.56 2.45,0.61l0 1.94z"/>
  <path class="fil0" d="M2.83 15.07c0,0 0,-0.03 -0.02,-0.08 -0.08,-0.23 -0.42,-0.99 -1.58,-1.48 -1.38,-0.58 -1.33,-2.03 -1.11,-2.79 0,0 2.33,0.59 2.81,2.7l-0.1 1.65z"/>
  <path class="fil0" d="M2.84 12.49c0,0 -0.01,-0.02 -0.02,-0.06 -0.08,-0.23 -0.4,-0.94 -1.49,-1.4 -1.3,-0.55 -1.26,-1.92 -1.05,-2.63 0,0 2.19,0.55 2.65,2.54l-0.09 1.55z"/>
  <path class="fil0" d="M2.85 10.02c0,0 -0.01,-0.02 -0.02,-0.06 -0.08,-0.21 -0.38,-0.88 -1.4,-1.31 -1.22,-0.52 -1.18,-1.8 -0.99,-2.47 0,0 2.06,0.51 2.49,2.38l-0.08 1.46z"/>
  <path class="fil0" d="M2.85 7.42c0,0 0,-0.02 -0.02,-0.05 -0.06,-0.2 -0.34,-0.81 -1.27,-1.2 -1.13,-0.48 -1.09,-1.65 -0.91,-2.26 0,0 1.89,0.47 2.28,2.18l-0.08 1.33z"/>
  <path class="fil0" d="M2.96 15.07c0,0 0.01,-0.03 0.02,-0.08 0.08,-0.23 0.42,-0.99 1.58,-1.48 1.38,-0.58 1.34,-2.03 1.12,-2.79 0,0 -2.33,0.59 -2.82,2.7l0.1 1.65z"/>
  <path class="fil0" d="M2.95 12.49c0,0 0.01,-0.02 0.02,-0.06 0.08,-0.23 0.4,-0.94 1.49,-1.4 1.31,-0.55 1.26,-1.92 1.05,-2.63 0,0 -2.19,0.55 -2.65,2.54l0.09 1.55z"/>
  <path class="fil0" d="M2.95 10.02c0,0 0,-0.02 0.02,-0.06 0.07,-0.21 0.37,-0.88 1.39,-1.31 1.23,-0.52 1.18,-1.8 0.99,-2.47 0,0 -2.06,0.51 -2.49,2.38l0.09 1.46z"/>
  <path class="fil0" d="M2.94 7.42c0,0 0.01,-0.02 0.02,-0.05 0.06,-0.2 0.34,-0.81 1.28,-1.2 1.12,-0.48 1.08,-1.65 0.9,-2.26 0,0 -1.88,0.47 -2.28,2.18l0.08 1.33z"/>
  <path class="fil0" d="M2.88 4.61c0,0 -0.92,-1.16 -0.92,-2.24 0,-1.07 1.07,-2.37 1.07,-2.37 0,0 0.82,1.6 0.82,2.47 0,0.86 -0.97,2.14 -0.97,2.14z"/>
 </g>
</svg>
