<?xml version="1.0" encoding="UTF-8"?>
<!DOCTYPE svg PUBLIC "-//W3C//DTD SVG 1.0//EN" "http://www.w3.org/TR/2001/REC-SVG-20010904/DTD/svg10.dtd">
<!-- Creator: CorelDRAW 2021 (64-Bit) -->
<svg xmlns="http://www.w3.org/2000/svg" xml:space="preserve" width="386px" height="437px" version="1.0" style="shape-rendering:geometricPrecision; text-rendering:geometricPrecision; image-rendering:optimizeQuality; fill-rule:evenodd; clip-rule:evenodd"
viewBox="0 0 138.92 157.44"
 xmlns:xlink="http://www.w3.org/1999/xlink"
 xmlns:xodm="http://www.corel.com/coreldraw/odm/2003">
 <defs>
  <style type="text/css">
   <![CDATA[
    .fil0 {fill:black}
   ]]>
  </style>
 </defs>
 <g id="Layer_x0020_1">
  <metadata id="CorelCorpID_0Corel-Layer"/>
  <g id="_1963171474192">
   <path class="fil0" d="M5.72 62.2c0,-7.04 0.75,-8.96 1.05,-14.42 0.25,-4.55 0.41,-7.56 3.08,-9.92 2.44,-2.16 6.04,-2.53 10.28,-2.71 10.2,-0.44 17.2,-3.94 28.52,5.21 3.75,3.03 7.23,8.58 8.35,14.14 1.22,6.03 4.02,10.55 10.17,12.32 6.21,1.8 10.15,2.23 15.44,7.41 4.65,4.57 6.09,8.79 7.59,14.9 3.62,14.68 16.77,7.71 26.12,18.86 9.25,11.03 6.64,17.64 5.76,29.1 -0.35,4.47 -0.15,7.49 -2.57,10.08 -2.87,3.06 -3.92,2.74 -9,3.31 -12.37,1.39 -21.03,2.82 -30.88,-5.44 -4.16,-3.49 -6.86,-8.98 -8.04,-14.46 -3.06,-14.26 -12.25,-9.45 -22.44,-16.57l-3.11 -2.5c-10.29,-9.87 -4.01,-22.73 -18.91,-25.73 -4,-0.81 -8.68,-2.6 -11.65,-5.22 -3.79,-3.35 -5.04,-4.73 -7.42,-9.45 -1.16,-2.31 -2.34,-5.62 -2.34,-8.91zm52.72 -56.58l13.04 3.12c4.47,1.32 7.89,2.39 11.42,4.75 6.01,4 11.03,11.47 11.03,21.3 0,4.2 -2.99,11.69 4.32,17.83l6.94 5.01c2.94,2.26 6.46,8.31 7.51,12.86 2.49,10.73 -3.09,16.34 4.33,23.44 1.19,1.15 2.26,1.77 3.68,2.65 6.82,4.22 12.23,12.51 12.23,20.45 0,6.3 -0.64,10.47 -3.98,16.04 -0.43,0.71 -0.18,0.36 -0.59,0.83 0,-2.8 0.71,-5.07 0.71,-8.09 0,-15.15 -10.95,-28.3 -25.27,-31.31 -11.52,-2.41 -5.57,-10.46 -13.85,-20.59 -4.89,-6 -9.32,-9.35 -16.8,-11.67 -2.98,-0.93 -8.66,-0.88 -10.07,-7.14 -2.01,-8.91 -5.4,-15.61 -13.08,-21.01 -1.79,-1.26 -5.33,-3.31 -7.74,-3.87 1.63,-6.98 2.87,-8.08 5.98,-14.4 1.78,-3.62 3.29,-10.2 10.19,-10.2zm-22.14 22.85c-9.36,0 -6.58,-0.01 -15.43,0.73 -7.62,0.64 -13.41,0.97 -17.33,7.27 -2.97,4.77 -3.81,17.81 -3.47,24.34 0.07,1.37 -0.06,2.77 0.12,4.12 1.35,10.39 7.99,19.04 17.13,23.63 1.83,0.92 3.49,1.67 5.83,2.26 2.49,0.62 4.55,0.75 6.34,2.09 5.07,3.8 3.07,11.37 9.37,19.09 0.72,0.88 1.15,1.52 1.91,2.31 12.82,13.31 22.54,6.87 24.78,15.99 1.26,5.14 1.56,7.07 4.37,11.79 4.71,7.9 14.78,15.35 25.77,15.35l11.9 -0.75c6.13,-0.66 10.77,-0.73 15.27,-4.41 0.98,-0.81 1.81,-1.25 2.87,-2.05 3.67,-2.79 6.64,-10.97 8.97,-15.63 2.77,-5.54 4.22,-9.31 4.22,-16.17 0,-11.16 -5.96,-19.97 -13.2,-25.45 -3,-2.27 -6.62,-3.51 -6.93,-8.5 -0.36,-5.66 2.29,-10.36 -2,-20.18 -6.61,-15.1 -17.58,-14.29 -17.58,-21.42 0,-6.85 1.47,-10.59 -1.18,-18.51 -3.4,-10.14 -11.62,-17.48 -21.79,-20.39 -3.02,-0.86 -14.95,-3.98 -17.45,-3.98 -3.51,0 -5.66,0.1 -8.69,2.56 -0.29,0.24 -0.49,0.41 -0.75,0.65 -0.08,0.07 -0.29,0.27 -0.37,0.34 -4.23,4.09 -6.37,10.58 -9.17,16.13 -1.75,3.48 -2.55,6.96 -3.51,8.79z"/>
   <path class="fil0" d="M16.97 60.45c0,-5.63 4.03,-11.05 7.96,-13.13 9.62,-5.09 21.21,1.96 21.21,13.13 0,6.93 -6.83,14.05 -13.71,14.05 -4.85,0 -7.95,-0.92 -11.34,-4.47 -1.94,-2.03 -4.12,-5.81 -4.12,-9.58zm-5.62 -1.41c0,6.2 1.88,11.22 6.06,15.38 9.12,9.06 22.81,7.32 29.39,-1.01 0.46,-0.59 0.67,-0.76 1.1,-1.36 4.14,-5.71 5.25,-14.46 1.99,-20.98 -0.8,-1.6 -2.95,-4.52 -4.18,-5.65 -13.92,-12.8 -34.36,-1.72 -34.36,13.62z"/>
   <path class="fil0" d="M64.41 107.54c-7.22,0 -14.41,-6.58 -14.41,-13.36 0,-4.65 0.61,-7.96 4.47,-11.69 13.36,-12.91 33.64,6.81 19.87,20.57 -2.5,2.5 -6.34,4.48 -9.93,4.48zm-20.38 -15.11c0,10.69 8.76,20.73 19.33,20.73 12.36,0 20.4,-7.92 21.34,-20.13 0.4,-5.13 -2.15,-10.31 -5.44,-14.05 -0.8,-0.91 -1.67,-1.46 -2.65,-2.26 -1.06,-0.87 -1.86,-1.27 -3.06,-1.87 -7.97,-3.99 -17.67,-2.32 -23.82,3.95 -2.84,2.9 -5.7,8 -5.7,13.63z"/>
   <path class="fil0" d="M97.1 140.22c-12.17,0 -19.57,-15.43 -10.12,-24.88 7.24,-7.23 18.86,-4.78 23.24,4.37 0.92,1.92 1.31,3.24 1.48,5.88 0.26,4.04 -2.09,8.03 -4.27,10.21 -2.28,2.28 -5.92,4.42 -10.33,4.42zm-20.04 -15.46c0,24.75 30.18,27.27 38.2,10.08 5.49,-11.75 -0.42,-29.41 -18.87,-29.41 -2.59,0 -5.93,0.96 -7.73,1.76 -2.54,1.13 -5.13,2.92 -6.83,5.12 -1.53,1.98 -1.6,1.69 -2.9,4.48 -0.89,1.91 -1.87,5.32 -1.87,7.97z"/>
   <path class="fil0" d="M68.63 17.57c0,5.13 7.89,1.38 12.31,10.89 2.53,5.47 0.65,8.69 1.25,10.31 0.89,2.36 7.16,5.11 5.72,-7.09 -0.41,-3.49 -2.12,-6.81 -3.86,-9.15 -1.8,-2.41 -4.23,-4.47 -7.09,-5.9 -2.2,-1.11 -8.33,-3.71 -8.33,0.94z"/>
   <path class="fil0" d="M93.23 61.5c0,3.48 4.74,2.95 7.5,9.37 3.17,7.39 -1.79,11.72 4.45,11.72 3.68,0 3.38,-10.85 -1.12,-17.51 -1.23,-1.83 -5.87,-6.39 -7.67,-6.39 -1.7,0 -3.16,1 -3.16,2.81z"/>
  </g>
 </g>
</svg>
